<svg preserveAspectRatio="none" width="100%" height="100%" overflow="visible" style="display: block;" viewBox="0 0 144.986 72.5" fill="none" xmlns="http://www.w3.org/2000/svg">
<path id="Ellipse 2473" d="M143.993 72.5C144.545 72.5 144.994 72.0517 144.986 71.4995C144.726 52.6331 137.119 34.5951 123.758 21.2348C110.162 7.63837 91.7214 1.45169e-06 72.4932 0C53.265 -1.45169e-06 34.8244 7.63837 21.228 21.2348C7.86758 34.5951 0.260167 52.6331 9.55089e-05 71.4994C-0.00751698 72.0517 0.440915 72.5 0.9932 72.5L5.2427 72.5C5.79498 72.5 6.24191 72.0517 6.25024 71.4995C6.50983 54.2907 13.4586 37.8422 25.647 25.6538C38.0714 13.2294 54.9225 6.2495 72.4932 6.2495C90.0639 6.2495 106.915 13.2294 119.339 25.6538C131.528 37.8422 138.477 54.2907 138.736 71.4995C138.744 72.0518 139.191 72.5 139.744 72.5H143.993Z" fill="url(#paint0_linear_16_224)" fill-opacity="0.5"/>
<defs>
<linearGradient id="paint0_linear_16_224" x1="108.194" y1="14.8295" x2="144.993" y2="72.5" gradientUnits="userSpaceOnUse">
<stop stop-opacity="0.2"/>
<stop offset="1" stop-opacity="0.1"/>
</linearGradient>
</defs>
</svg>
