<svg width="24" height="36" viewBox="0 0 24 36" fill="none" xmlns="http://www.w3.org/2000/svg">
<path d="M12.4371 0.000591058C11.0936 0.000982963 9.80529 0.536007 8.85529 1.48805C7.90531 2.44009 7.37145 3.73123 7.37105 5.07761V7.38401H5.06963C4.40385 7.38345 3.7445 7.51447 3.1293 7.76956C2.51411 8.02464 1.95514 8.39881 1.48438 8.87062C1.01362 9.3424 0.640312 9.90261 0.385808 10.5191C0.131306 11.1357 0.000606516 11.7965 0.00118857 12.4637V17.5389H7.36986V22.1517H5.06844C3.72457 22.1515 2.43566 22.6863 1.48518 23.6384C0.534692 24.5905 0.000469439 25.8819 0 27.2287L0 36H5.07081C5.73595 35.9997 6.3945 35.8682 7.00889 35.6126C7.62325 35.3573 8.18139 34.9831 8.65146 34.5115C9.12151 34.0399 9.49426 33.4801 9.74843 32.864C10.0026 32.2479 10.1332 31.588 10.1327 30.9214H10.1392V27.5704L10.1257 27.5722V6.22342L10.1369 6.22608V5.0785C10.1381 4.46659 10.3807 3.87998 10.8119 3.44671C11.243 3.01344 11.8277 2.7687 12.4383 2.76589H21.2395V5.0785C21.2376 5.69013 20.9941 6.27613 20.5623 6.70833C20.1305 7.14053 19.5454 7.3838 18.9351 7.38489H11.1784V10.1532H18.9339C20.2774 10.1532 21.5659 9.61847 22.516 8.66652C23.466 7.71457 23.9998 6.42341 24 5.07703V0L12.4371 0.000591058ZM7.37105 14.7704H2.76643V12.464C2.76744 11.8513 3.01037 11.264 3.44218 10.8303C3.87396 10.3967 4.4595 10.1519 5.07081 10.1496H7.37224L7.37105 14.7704ZM7.37105 30.9239C7.37004 31.5355 7.12731 32.1219 6.69601 32.5544C6.26468 32.9872 5.6799 33.2311 5.06963 33.2327H2.76525V27.2302C2.7658 26.6181 3.00886 26.0315 3.44097 25.5989C3.8731 25.1664 4.4589 24.9236 5.06963 24.9238H7.37105V30.9239ZM11.1784 17.5386H16.991V19.8474C16.9888 20.4589 16.7451 21.0447 16.3134 21.4768C15.8816 21.9089 15.2968 22.1523 14.6866 22.1538H11.1784V24.9238H14.6878C15.3532 24.9242 16.0121 24.7931 16.6269 24.5381C17.2417 24.283 17.8003 23.9091 18.2708 23.4376C18.7413 22.966 19.1145 22.4062 19.369 21.7901C19.6234 21.174 19.7542 20.5136 19.7539 19.8468H19.7562V14.7698H11.1784V17.5386Z" fill="#1F2937"/>
</svg>
