<svg preserveAspectRatio="none" width="100%" height="100%" overflow="visible" style="display: block;" viewBox="0 0 58 58" fill="none" xmlns="http://www.w3.org/2000/svg">
<g id="Frame 1984078415">
<rect width="58" height="58" rx="29" fill="var(--fill-0, #1F2937)"/>
<path id="Vector" d="M29.4371 11.0006C28.0936 11.001 26.8053 11.536 25.8553 12.488C24.9053 13.4401 24.3715 14.7312 24.371 16.0776V18.384H22.0696C21.4039 18.3834 20.7445 18.5145 20.1293 18.7696C19.5141 19.0246 18.9551 19.3988 18.4844 19.8706C18.0136 20.3424 17.6403 20.9026 17.3858 21.5191C17.1313 22.1357 17.0006 22.7965 17.0012 23.4637V28.5389H24.3699V33.1517H22.0684C20.7246 33.1515 19.4357 33.6863 18.4852 34.6384C17.5347 35.5905 17.0005 36.8819 17 38.2287V47H22.0708C22.736 46.9997 23.3945 46.8682 24.0089 46.6126C24.6233 46.3573 25.1814 45.9831 25.6515 45.5115C26.1215 45.0399 26.4943 44.4801 26.7484 43.864C27.0026 43.2479 27.1332 42.588 27.1327 41.9214H27.1392V38.5704L27.1257 38.5722V17.2234L27.1369 17.2261V16.0785C27.1381 15.4666 27.3807 14.88 27.8119 14.4467C28.243 14.0134 28.8277 13.7687 29.4383 13.7659H38.2395V16.0785C38.2376 16.6901 37.9941 17.2761 37.5623 17.7083C37.1305 18.1405 36.5454 18.3838 35.9351 18.3849H28.1784V21.1532H35.9339C37.2774 21.1532 38.5659 20.6185 39.516 19.6665C40.466 18.7146 40.9998 17.4234 41 16.077V11L29.4371 11.0006ZM24.371 25.7704H19.7664V23.464C19.7674 22.8513 20.0104 22.264 20.4422 21.8304C20.874 21.3967 21.4595 21.1519 22.0708 21.1496H24.3722L24.371 25.7704ZM24.371 41.9239C24.37 42.5355 24.1273 43.1219 23.696 43.5544C23.2647 43.9872 22.6799 44.2311 22.0696 44.2327H19.7652V38.2302C19.7658 37.6181 20.0089 37.0315 20.441 36.5989C20.8731 36.1664 21.4589 35.9236 22.0696 35.9238H24.371V41.9239ZM28.1784 28.5386H33.991V30.8474C33.9887 31.4589 33.7451 32.0447 33.3134 32.4768C32.8816 32.9089 32.2968 33.1523 31.6866 33.1538H28.1784V35.9238H31.6878C32.3532 35.9242 33.0121 35.7931 33.6269 35.5381C34.2417 35.283 34.8003 34.9091 35.2708 34.4376C35.7413 33.966 36.1145 33.4062 36.369 32.7901C36.6234 32.174 36.7542 31.5136 36.7539 30.8468H36.7562V25.7698H28.1784V28.5386Z" fill="var(--fill-0, white)"/>
</g>
</svg>
