<svg preserveAspectRatio="none" width="100%" height="100%" overflow="visible" style="display: block;" viewBox="0 0 1440.05 1023.98" fill="none" xmlns="http://www.w3.org/2000/svg">
<path id="Union" d="M1439.05 1023.98H0V1022.98H1439.05V1023.98ZM1439.05 0.420898H1440.05V1022.56H1439.05V910.316H1329.36V1022.56H1328.36V910.316H1218.66V1022.56H1217.66V910.316H1107.96V1022.56H1106.96V910.316H997.267V1022.56H996.267V910.316H886.571V1022.56H885.571V910.316H775.876V1022.56H774.876V910.316H665.181V1022.56H664.181V910.316H554.481V1022.56H553.481V910.316H443.79V1022.56H442.79V910.316H333.087V1022.56H332.087V910.316H222.392V1022.56H221.392V910.316H111.696V1022.56H110.696V910.316H1.00098V1022.56H0.000976562V910.316H0V909.316H0.000976562V796.651H0V795.651H0.000976562V682.986H0V681.986H0.000976562V569.322H0V568.322H0.000976562V455.657H0V454.657H0.000976562V341.993H0V340.993H0.000976562V228.328H0V227.328H0.000976562V114.665H0V113.665H0.000976562V1H0V0H1439.05V0.420898ZM1.00098 909.316H110.696V796.651H1.00098V909.316ZM111.696 909.316H221.392V796.651H111.696V909.316ZM222.392 909.316H332.087V796.651H222.392V909.316ZM333.087 909.316H442.79V796.651H333.087V909.316ZM443.79 909.316H553.481V796.651H443.79V909.316ZM554.481 909.316H664.181V796.651H554.481V909.316ZM665.181 909.316H774.876V796.651H665.181V909.316ZM775.876 909.316H885.571V796.651H775.876V909.316ZM886.571 909.316H996.267V796.651H886.571V909.316ZM997.267 909.316H1106.96V796.651H997.267V909.316ZM1107.96 909.316H1217.66V796.651H1107.96V909.316ZM1218.66 909.316H1328.36V796.651H1218.66V909.316ZM1329.36 909.316H1439.05V796.651H1329.36V909.316ZM1.00098 795.651H110.696V682.986H1.00098V795.651ZM111.696 795.651H221.392V682.986H111.696V795.651ZM222.392 795.651H332.087V682.986H222.392V795.651ZM333.087 795.651H442.79V682.986H333.087V795.651ZM443.79 795.651H553.481V682.986H443.79V795.651ZM554.481 795.651H664.181V682.986H554.481V795.651ZM665.181 795.651H774.876V682.986H665.181V795.651ZM775.876 795.651H885.571V682.986H775.876V795.651ZM886.571 795.651H996.267V682.986H886.571V795.651ZM997.267 795.651H1106.96V682.986H997.267V795.651ZM1107.96 795.651H1217.66V682.986H1107.96V795.651ZM1218.66 795.651H1328.36V682.986H1218.66V795.651ZM1329.36 795.651H1439.05V682.986H1329.36V795.651ZM1.00098 681.986H110.696V569.322H1.00098V681.986ZM111.696 681.986H221.392V569.322H111.696V681.986ZM222.392 681.986H332.087V569.322H222.392V681.986ZM333.087 681.986H442.79V569.322H333.087V681.986ZM443.79 681.986H553.481V569.322H443.79V681.986ZM554.481 681.986H664.181V569.322H554.481V681.986ZM665.181 681.986H774.876V569.322H665.181V681.986ZM775.876 681.986H885.571V569.322H775.876V681.986ZM886.571 681.986H996.267V569.322H886.571V681.986ZM997.267 681.986H1106.96V569.322H997.267V681.986ZM1107.96 681.986H1217.66V569.322H1107.96V681.986ZM1218.66 681.986H1328.36V569.322H1218.66V681.986ZM1329.36 681.986H1439.05V569.322H1329.36V681.986ZM1.00098 568.322H110.696V455.657H1.00098V568.322ZM111.696 568.322H221.392V455.657H111.696V568.322ZM222.392 568.322H332.087V455.657H222.392V568.322ZM333.087 568.322H442.79V455.657H333.087V568.322ZM443.79 568.322H553.481V455.657H443.79V568.322ZM554.481 568.322H664.181V455.657H554.481V568.322ZM665.181 568.322H774.876V455.657H665.181V568.322ZM775.876 568.322H885.571V455.657H775.876V568.322ZM886.571 568.322H996.267V455.657H886.571V568.322ZM997.267 568.322H1106.96V455.657H997.267V568.322ZM1107.96 568.322H1217.66V455.657H1107.96V568.322ZM1218.66 568.322H1328.36V455.657H1218.66V568.322ZM1329.36 568.322H1439.05V455.657H1329.36V568.322ZM1.00098 454.657H110.696V341.993H1.00098V454.657ZM111.696 454.657H221.392V341.993H111.696V454.657ZM222.392 454.657H332.087V341.993H222.392V454.657ZM333.087 454.657H442.79V341.993H333.087V454.657ZM443.79 454.657H553.481V341.993H443.79V454.657ZM554.481 454.657H664.181V341.993H554.481V454.657ZM665.181 454.657H774.876V341.993H665.181V454.657ZM775.876 454.657H885.571V341.993H775.876V454.657ZM886.571 454.657H996.267V341.993H886.571V454.657ZM997.267 454.657H1106.96V341.993H997.267V454.657ZM1107.96 454.657H1217.66V341.993H1107.96V454.657ZM1218.66 454.657H1328.36V341.993H1218.66V454.657ZM1329.36 454.657H1439.05V341.993H1329.36V454.657ZM1.00098 340.993H110.696V228.328H1.00098V340.993ZM111.696 340.993H221.392V228.328H111.696V340.993ZM222.392 340.993H332.087V228.328H222.392V340.993ZM333.087 340.993H442.79V228.328H333.087V340.993ZM443.79 340.993H553.481V228.328H443.79V340.993ZM554.481 340.993H664.181V228.328H554.481V340.993ZM665.181 340.993H774.876V228.328H665.181V340.993ZM775.876 340.993H885.571V228.328H775.876V340.993ZM886.571 340.993H996.267V228.328H886.571V340.993ZM997.267 340.993H1106.96V228.328H997.267V340.993ZM1107.96 340.993H1217.66V228.328H1107.96V340.993ZM1218.66 340.993H1328.36V228.328H1218.66V340.993ZM1329.36 340.993H1439.05V228.328H1329.36V340.993ZM1.00098 227.328H110.696V114.665H1.00098V227.328ZM111.696 227.328H221.392V114.665H111.696V227.328ZM222.392 227.328H332.087V114.665H222.392V227.328ZM333.087 227.328H442.79V114.665H333.087V227.328ZM443.79 227.328H553.481V114.665H443.79V227.328ZM554.481 227.328H664.181V114.665H554.481V227.328ZM665.181 227.328H774.876V114.665H665.181V227.328ZM775.876 227.328H885.571V114.665H775.876V227.328ZM886.571 227.328H996.267V114.665H886.571V227.328ZM997.267 227.328H1106.96V114.665H997.267V227.328ZM1107.96 227.328H1217.66V114.665H1107.96V227.328ZM1218.66 227.328H1328.36V114.665H1218.66V227.328ZM1329.36 227.328H1439.05V114.665H1329.36V227.328ZM1.00098 113.665H110.696V1H1.00098V113.665ZM111.696 113.665H221.392V1H111.696V113.665ZM222.392 113.665H332.087V1H222.392V113.665ZM333.087 113.665H442.79V1H333.087V113.665ZM443.79 113.665H553.481V1H443.79V113.665ZM554.481 113.665H664.181V1H554.481V113.665ZM665.181 113.665H774.876V1H665.181V113.665ZM775.876 113.665H885.571V1H775.876V113.665ZM886.571 113.665H996.267V1H886.571V113.665ZM997.267 113.665H1106.96V1H997.267V113.665ZM1107.96 113.665H1217.66V1H1107.96V113.665ZM1218.66 113.665H1328.36V1H1218.66V113.665ZM1329.36 113.665H1439.05V1H1329.36V113.665Z" fill="url(#paint0_radial_15_161)" fill-opacity="0.4"/>
<defs>
<radialGradient id="paint0_radial_15_161" cx="0" cy="0" r="1" gradientUnits="userSpaceOnUse" gradientTransform="translate(315 459) rotate(17.5204) scale(832.101 1170.21)">
<stop stop-opacity="0.2"/>
<stop offset="1" stop-opacity="0.1"/>
</radialGradient>
</defs>
</svg>
