<svg preserveAspectRatio="none" width="100%" height="100%" overflow="visible" style="display: block;" viewBox="0 0 22.1238 22.1238" fill="none" xmlns="http://www.w3.org/2000/svg">
<g id="Frame">
<path id="Vector" d="M14.7496 1.84351V5.53081M7.375 1.84351V5.53081" stroke="var(--stroke-0, #6B7280)" stroke-width="1.02425" stroke-linecap="round" stroke-linejoin="round"/>
<path id="Vector_2" d="M11.9839 3.68726H10.1402C6.66381 3.68726 4.9256 3.68726 3.84561 4.76724C2.76562 5.84723 2.76562 7.58544 2.76562 11.0619V12.9055C2.76562 16.3819 2.76562 18.1202 3.84561 19.2001C4.9256 20.2801 6.66381 20.2801 10.1402 20.2801H11.9839C15.4603 20.2801 17.1986 20.2801 18.2785 19.2001C19.3585 18.1202 19.3585 16.3819 19.3585 12.9055V11.0619C19.3585 7.58544 19.3585 5.84723 18.2785 4.76724C17.1986 3.68726 15.4603 3.68726 11.9839 3.68726Z" stroke="var(--stroke-0, #6B7280)" stroke-width="1.02425" stroke-linecap="round" stroke-linejoin="round"/>
<path id="Vector_3" d="M2.76562 9.21826H19.3585" stroke="var(--stroke-0, #6B7280)" stroke-width="1.02425" stroke-linecap="round" stroke-linejoin="round"/>
<path id="Vector_4" d="M11.0582 12.9055H11.0665M11.0582 16.5928H11.0665M14.7413 12.9055H14.7496M7.375 12.9055H7.38327M7.375 16.5928H7.38327" stroke="var(--stroke-0, #6B7280)" stroke-width="1.02425" stroke-linecap="round" stroke-linejoin="round"/>
</g>
</svg>
