<svg preserveAspectRatio="none" width="100%" height="100%" overflow="visible" style="display: block;" viewBox="0 0 20 20" fill="none" xmlns="http://www.w3.org/2000/svg">
<g id="Frame">
<path id="Vector" d="M10.8346 5.83333C10.8346 7.67428 9.34222 9.16667 7.5013 9.16667C5.66035 9.16667 4.16797 7.67428 4.16797 5.83333C4.16797 3.99238 5.66035 2.5 7.5013 2.5C9.34222 2.5 10.8346 3.99238 10.8346 5.83333Z" stroke="var(--stroke-0, white)" stroke-width="0.833333"/>
<path id="Vector_2" d="M12.5 9.16667C14.3409 9.16667 15.8333 7.67428 15.8333 5.83333C15.8333 3.99238 14.3409 2.5 12.5 2.5" stroke="var(--stroke-0, white)" stroke-width="0.833333" stroke-linecap="round" stroke-linejoin="round"/>
<path id="Vector_3" d="M9.16797 11.6667H5.83464C3.53345 11.6667 1.66797 13.5322 1.66797 15.8334C1.66797 16.7539 2.41416 17.5001 3.33464 17.5001H11.668C12.5885 17.5001 13.3346 16.7539 13.3346 15.8334C13.3346 13.5322 11.4691 11.6667 9.16797 11.6667Z" stroke="var(--stroke-0, white)" stroke-width="0.833333" stroke-linejoin="round"/>
<path id="Vector_4" d="M14.168 11.6667C16.4691 11.6667 18.3346 13.5322 18.3346 15.8334C18.3346 16.7539 17.5885 17.5001 16.668 17.5001H15.418" stroke="var(--stroke-0, white)" stroke-width="0.833333" stroke-linecap="round" stroke-linejoin="round"/>
</g>
</svg>
