<svg preserveAspectRatio="none" width="100%" height="100%" overflow="visible" style="display: block;" viewBox="0 0 19.6656 19.6656" fill="none" xmlns="http://www.w3.org/2000/svg">
<g id="Frame">
<path id="Vector" d="M3.27734 9.83304V11.9178C3.27734 14.5767 3.27734 15.9062 4.00339 16.8067C4.15007 16.9886 4.31578 17.1544 4.4977 17.3011C5.39821 18.0271 6.7277 18.0271 9.38664 18.0271C9.96481 18.0271 10.2538 18.0271 10.5186 17.9336C10.5736 17.9142 10.6275 17.8919 10.6802 17.8667C10.9335 17.7456 11.1379 17.5411 11.5467 17.1323L15.4278 13.2513C15.9015 12.7776 16.1383 12.5408 16.2631 12.2396C16.3878 11.9384 16.3878 11.6035 16.3878 10.9337V8.19424C16.3878 5.1041 16.3878 3.55903 15.4278 2.59903C14.5599 1.73116 13.2138 1.64789 10.6802 1.63989M10.652 17.6174V17.2077C10.652 14.8901 10.652 13.7313 11.372 13.0113C12.092 12.2912 13.2508 12.2912 15.5684 12.2912H15.9781" stroke="var(--stroke-0, #6B7280)" stroke-width="1.02425" stroke-linecap="round" stroke-linejoin="round"/>
<path id="Vector_2" d="M3.27734 6.74393V4.47482C3.27734 2.90832 4.56135 1.63843 6.14525 1.63843C7.72915 1.63843 9.01315 2.90832 9.01315 4.47482V7.59484C9.01315 8.37808 8.37115 9.01303 7.5792 9.01303C6.78725 9.01303 6.14525 8.37808 6.14525 7.59484V4.47482" stroke="var(--stroke-0, #6B7280)" stroke-width="1.02425" stroke-linecap="round" stroke-linejoin="round"/>
</g>
</svg>
