<svg preserveAspectRatio="none" width="100%" height="100%" overflow="visible" style="display: block;" viewBox="0 0 48 48" fill="none" xmlns="http://www.w3.org/2000/svg">
<g id="35">
<rect width="48" height="48" rx="8" fill="var(--fill-0, #657080)"/>
<g id="Vector">
<path d="M16.059 16.8454C17.0074 17.7941 17.5401 19.0806 17.5401 20.4219C17.5401 21.7633 17.0074 23.0498 16.059 23.9985L12.4805 27.5731L16.059 31.1516L23.2161 23.9985L16.059 16.8454Z" fill="var(--fill-0, white)"/>
<path d="M28.3633 27.5811L31.9419 31.1556C30.9935 30.207 30.4608 28.9205 30.4608 27.5791C30.4608 26.2377 30.9935 24.9512 31.9419 24.0025L35.5205 20.4239L31.9419 16.8454L24.7888 24.0025L28.3633 27.5811Z" fill="var(--fill-0, white)"/>
<path d="M16.8456 31.9418C17.7943 30.9935 19.0807 30.4608 20.4221 30.4608C21.7635 30.4608 23.05 30.9935 23.9987 31.9418L27.5732 35.5205L31.1518 31.9418L23.9987 24.7887L16.8456 31.9418Z" fill="var(--fill-0, white)"/>
<path d="M31.1558 16.059C30.2071 17.0074 28.9206 17.5401 27.5792 17.5401C26.2378 17.5401 24.9514 17.0074 24.0027 16.059L20.4241 12.4805L16.8456 16.059L24.0027 23.2162L31.1558 16.059Z" fill="var(--fill-0, white)"/>
</g>
</g>
</svg>
