<svg preserveAspectRatio="none" width="100%" height="100%" overflow="visible" style="display: block;" viewBox="0 0 48 48" fill="none" xmlns="http://www.w3.org/2000/svg">
<g id="34">
<rect width="48" height="48" rx="8" fill="var(--fill-0, #657080)"/>
<g id="Vector">
<path d="M33.4373 12.9413H30.5505C29.6598 12.9413 28.9376 13.6489 28.9376 14.5219V17.351C28.9376 18.224 29.6598 18.9317 30.5505 18.9317H33.4373C34.3281 18.9317 35.0503 18.224 35.0503 17.351V14.5219C35.0503 13.6489 34.3281 12.9413 33.4373 12.9413Z" fill="var(--fill-0, white)"/>
<path d="M22.1323 19.1003H24.6673C25.7162 19.1587 26.7141 19.5637 27.498 20.2493L27.5931 20.3528C28.2963 21.1188 28.7101 22.098 28.7655 23.127V25.6009C28.7655 26.0319 28.9402 26.4453 29.2512 26.7501C29.5622 27.0548 29.9841 27.2261 30.4239 27.2261H33.3919C33.8317 27.2261 34.2536 27.0548 34.5645 26.7501C34.8755 26.4453 35.0503 26.0319 35.0503 25.6009V22.6922C35.0503 22.2612 34.8755 21.8478 34.5645 21.5431C34.2536 21.2383 33.8317 21.0671 33.3919 21.0671H30.8675C29.8176 21.0127 28.8184 20.6072 28.0367 19.9181L27.9311 19.8249C27.2301 19.0575 26.8166 18.0791 26.7586 17.0507V14.5664C26.7586 14.1354 26.584 13.722 26.273 13.4173C25.9619 13.1125 25.5402 12.9413 25.1003 12.9413H22.1323C21.6924 12.9413 21.2707 13.1125 20.9597 13.4173C20.6487 13.722 20.4739 14.1354 20.4739 14.5664V17.4752C20.4739 17.9062 20.6487 18.3195 20.9597 18.6243C21.2707 18.929 21.6924 19.1003 22.1323 19.1003Z" fill="var(--fill-0, white)"/>
<path d="M33.8673 29.2844H31.3561C30.3108 29.2179 29.3204 28.7929 28.5519 28.0811L28.2695 27.7987C27.5729 27.0243 27.1629 26.0345 27.108 24.9945V22.4833C27.1053 22.0485 26.9313 21.6322 26.6239 21.3247C26.3164 21.0172 25.9001 20.8433 25.4653 20.8406H22.9541C21.9174 20.7969 20.9273 20.3979 20.15 19.7106L19.8675 19.428C19.1709 18.6538 18.761 17.664 18.7061 16.6239V14.1232C18.7061 13.6875 18.533 13.2697 18.225 12.9616C17.9169 12.6535 17.499 12.4805 17.0634 12.4805H14.1232C13.6875 12.4805 13.2697 12.6535 12.9616 12.9616C12.6536 13.2697 12.4805 13.6875 12.4805 14.1232V17.0634C12.4805 17.499 12.6536 17.9169 12.9616 18.2249C13.2697 18.533 13.6875 18.7061 14.1232 18.7061H16.6239C17.6798 18.7544 18.6861 19.1687 19.4699 19.878L19.7524 20.1605C20.4468 20.9361 20.8564 21.9251 20.9138 22.9646V25.4758C20.9165 25.9106 21.0905 26.3269 21.398 26.6343C21.7054 26.9418 22.1217 27.1158 22.5565 27.1185H25.0677C26.0963 27.1829 27.0731 27.592 27.8405 28.2799L28.123 28.5624C28.8174 29.3381 29.227 30.3271 29.2844 31.3666V33.8778C29.2871 34.3126 29.4611 34.7288 29.7686 35.0363C30.076 35.3438 30.4923 35.5177 30.9271 35.5205H33.8777C34.3126 35.5177 34.7288 35.3438 35.0363 35.0363C35.3438 34.7288 35.5177 34.3126 35.5205 33.8778V30.9271C35.5177 30.4905 35.3423 30.0727 35.0326 29.7649C34.7229 29.4571 34.3039 29.2844 33.8673 29.2844Z" fill="var(--fill-0, white)"/>
<path d="M17.3263 29.0693H14.2174C13.2581 29.0693 12.4805 29.777 12.4805 30.6499V33.479C12.4805 34.352 13.2581 35.0597 14.2174 35.0597H17.3263C18.2857 35.0597 19.0633 34.352 19.0633 33.479V30.6499C19.0633 29.777 18.2857 29.0693 17.3263 29.0693Z" fill="var(--fill-0, white)"/>
<path d="M25.3985 28.9006H22.874C21.8241 28.8463 20.8249 28.4408 20.0432 27.7517L19.9376 27.6585C19.2322 26.8857 18.8184 25.8992 18.7652 24.8636V22.3793C18.7599 21.9607 18.5901 21.5603 18.291 21.2613C17.9919 20.9625 17.5866 20.7882 17.1597 20.7749H14.1388C13.699 20.7749 13.2772 20.9461 12.9662 21.2509C12.6552 21.5556 12.4805 21.969 12.4805 22.4V25.3087C12.4805 25.7398 12.6552 26.1531 12.9662 26.4579C13.2772 26.7627 13.699 26.9339 14.1388 26.9339H16.6738C17.7228 26.9923 18.7206 27.3973 19.5046 28.0829L19.5996 28.1864C20.3028 28.9524 20.7167 29.9316 20.772 30.9605V33.4345C20.772 33.6488 20.8153 33.8609 20.8993 34.0588C20.9833 34.2566 21.1064 34.4363 21.2615 34.5873C21.4166 34.7384 21.6007 34.8578 21.8031 34.9389C22.0055 35.0199 22.2223 35.061 22.4409 35.0596H25.3985C25.8383 35.0596 26.2601 34.8884 26.5711 34.5837C26.8821 34.2789 27.0568 33.8655 27.0568 33.4345V30.5258C27.0568 30.0948 26.8821 29.6814 26.5711 29.3766C26.2601 29.0718 25.8383 28.9006 25.3985 28.9006Z" fill="var(--fill-0, white)"/>
</g>
</g>
</svg>
