<svg preserveAspectRatio="none" width="100%" height="100%" overflow="visible" style="display: block;" viewBox="0 0 48 48" fill="none" xmlns="http://www.w3.org/2000/svg">
<g id="33">
<rect width="48" height="48" rx="8" fill="var(--fill-0, #657080)"/>
<g id="Vector">
<path d="M19.0296 14.4869C18.5863 14.7765 18.2172 15.1661 17.952 15.6243C17.6868 16.0824 17.5327 16.5965 17.5024 17.125V20.1293C17.5327 20.6579 17.6868 21.1719 17.952 21.6301C18.2172 22.0883 18.5863 22.4778 19.0296 22.7674L22.1896 24.6295C23.0277 25.1137 23.7168 24.7165 23.7168 23.7481V13.5683C23.7168 12.6 23.0277 12.2027 22.1896 12.6869L19.0296 14.4869Z" fill="var(--fill-0, white)"/>
<path d="M18.9761 23.1749C18.5168 22.9466 18.0093 22.8276 17.4946 22.8276C16.9799 22.8276 16.4724 22.9466 16.0131 23.1749L13.4845 24.5988C13.0537 24.8755 12.6949 25.2479 12.437 25.6858C12.1792 26.1237 12.0295 26.615 12 27.1202V30.6086C12 31.5341 12.6699 31.9138 13.4845 31.4511L22.0538 26.5862C22.8685 26.1235 22.8685 25.37 22.0538 24.9072L18.9761 23.1749Z" fill="var(--fill-0, white)"/>
<path d="M28.7115 14.4869C29.1548 14.7765 29.5239 15.1661 29.7891 15.6243C30.0544 16.0824 30.2084 16.5965 30.2387 17.125V20.1293C30.2084 20.6579 30.0544 21.1719 29.7891 21.6301C29.5239 22.0883 29.1548 22.4778 28.7115 22.7674L25.5453 24.6295C24.7072 25.1137 24.0243 24.7165 24.0243 23.7481V13.5683C24.0243 12.6 24.7072 12.2027 25.5453 12.6869L28.7115 14.4869Z" fill="var(--fill-0, white)"/>
<path d="M28.7402 23.1749C29.2186 22.9466 29.7472 22.8276 30.2833 22.8276C30.8194 22.8276 31.348 22.9466 31.8264 23.1749L34.46 24.5988C34.908 24.8758 35.2808 25.2484 35.5482 25.6863C35.8157 26.1243 35.9705 26.6154 36 27.1202V30.6086C36 31.5341 35.3086 31.9138 34.46 31.4511L25.5346 26.5862C24.686 26.1235 24.686 25.37 25.5346 24.9072L28.7402 23.1749Z" fill="var(--fill-0, white)"/>
<path d="M16.7428 35.1736C17.2023 35.4017 17.7101 35.5205 18.2251 35.5205C18.7401 35.5205 19.2479 35.4017 19.7075 35.1736L22.2375 33.7457C22.6679 33.4677 23.026 33.0946 23.2829 32.6563C23.5398 32.218 23.6884 31.7267 23.7168 31.2218V27.7381C23.7168 26.8138 23.0526 26.4346 22.2375 26.8967L13.6633 31.755C12.8481 32.2171 12.8481 32.9696 13.6633 33.4317L16.7428 35.1736Z" fill="var(--fill-0, white)"/>
<path d="M24.0243 31.2247C24.0543 31.7283 24.2093 32.2183 24.4767 32.6553C24.7442 33.0923 25.1166 33.4641 25.5642 33.741L28.1979 35.1738C28.6763 35.4017 29.2049 35.5205 29.741 35.5205C30.2771 35.5205 30.8057 35.4017 31.2841 35.1738L34.4897 33.4272C35.3382 32.9654 35.3382 32.2134 34.4897 31.7516L25.5642 26.8966C24.7157 26.4348 24.0243 26.8137 24.0243 27.7373V31.2247Z" fill="var(--fill-0, white)"/>
</g>
</g>
</svg>
