<svg preserveAspectRatio="none" width="100%" height="100%" overflow="visible" style="display: block;" viewBox="0 0 48 48" fill="none" xmlns="http://www.w3.org/2000/svg">
<g id="24">
<rect width="48" height="48" rx="8" fill="var(--fill-0, #657080)"/>
<path id="Vector" d="M35.1791 21.4694L31.7411 18.0857C31.739 18.0836 31.7367 18.0816 31.7346 18.0795C31.7324 18.0775 31.7299 18.0746 31.7275 18.0722C30.7242 17.0849 29.4015 16.4741 27.9888 16.3457C26.576 16.2172 25.1622 16.5793 23.9921 17.369C22.8219 16.5793 21.4081 16.2172 19.9953 16.3457C18.5825 16.4741 17.2599 17.0849 16.2567 18.0722L12.8186 21.4559C11.7475 22.5104 11.1151 23.9206 11.0455 25.4101C10.9759 26.8996 11.474 28.3611 12.4422 29.508C13.4105 30.6548 14.779 31.4044 16.2796 31.6098C17.7802 31.8151 19.3047 31.4616 20.5541 30.6182C21.5658 31.301 22.7637 31.6666 23.9903 31.667C25.2171 31.6673 26.4151 31.3024 27.4272 30.6202C28.6752 31.4687 30.2005 31.8272 31.7033 31.6254C33.2062 31.4234 34.5781 30.6758 35.5495 29.5292C36.5208 28.3826 37.0213 26.9199 36.9529 25.4286C36.8843 23.9372 36.2517 22.525 35.1791 21.4694ZM18.6872 28.9238C17.9111 29.2887 17.0289 29.3717 16.1966 29.1582C15.3643 28.9449 14.6354 28.4487 14.1388 27.7576C13.6422 27.0664 13.4099 26.2248 13.4828 25.3813C13.5557 24.5378 13.9293 23.7469 14.5374 23.1483L17.9753 19.7646C18.509 19.2401 19.1945 18.891 19.9377 18.7653C20.681 18.6396 21.4456 18.7435 22.1265 19.0626L19.6946 21.4559C18.762 22.369 18.1582 23.5571 17.9753 24.8392C17.9351 25.1196 17.9148 25.4023 17.9145 25.6854C17.9121 26.8047 18.231 27.9019 18.8346 28.8506C18.7859 28.8762 18.7368 28.9005 18.6872 28.9236V28.9238ZM26.5705 28.2234C25.8859 28.8928 24.9596 29.2677 23.9946 29.2662C23.0296 29.2645 22.1046 28.8865 21.4222 28.215C20.7398 27.5433 20.3557 26.633 20.3541 25.6832C20.3526 24.7334 20.7335 23.8218 21.4136 23.1479L23.9921 20.6102L26.5705 23.1479C27.2532 23.8215 27.6365 24.734 27.6365 25.6854C27.6365 26.6367 27.2532 27.5493 26.5705 28.2228V28.2234ZM33.4601 28.2368C32.924 28.7632 32.2348 29.1124 31.4881 29.2363C30.7414 29.3602 29.9741 29.2526 29.2922 28.9284C29.2432 28.9052 29.1947 28.8808 29.1467 28.8553C29.7521 27.9055 30.072 26.8066 30.0696 25.6854C30.0693 25.4023 30.0491 25.1196 30.0088 24.8392C29.8259 23.5571 29.2221 22.369 28.2895 21.4559L25.8725 19.0771L25.8589 19.0637C26.5394 18.7447 27.3036 18.6408 28.0465 18.7661C28.7895 18.8915 29.4747 19.2401 30.0084 19.764C30.0109 19.7664 30.0132 19.769 30.0156 19.7714C30.0179 19.7738 30.02 19.7754 30.0221 19.7775L33.444 23.1454L33.4603 23.1615C34.1441 23.8345 34.5283 24.7474 34.5283 25.6992C34.5283 26.651 34.1441 27.5638 33.4603 28.2369L33.4601 28.2368Z" fill="var(--fill-0, white)"/>
</g>
</svg>
