<svg width="56" height="56" viewBox="0 0 56 56" fill="none" xmlns="http://www.w3.org/2000/svg">
<path d="M28.0013 51.3332C40.8879 51.3332 51.3346 40.8865 51.3346 27.9998C51.3346 15.1132 40.8879 4.6665 28.0013 4.6665C15.1147 4.6665 4.66797 15.1132 4.66797 27.9998C4.66797 40.8865 15.1147 51.3332 28.0013 51.3332Z" fill="white"/>
<path d="M37.2057 28.9212C36.7934 30.3835 34.8444 31.4169 30.9468 33.4838C27.1787 35.4816 25.2947 36.4807 23.7764 36.0792C23.1488 35.913 22.5769 35.5978 22.1156 35.1636C21 34.1129 21 32.0752 21 28C21 23.9248 21 21.8871 22.1156 20.8366C22.5769 20.4022 23.1488 20.0869 23.7764 19.9209C25.2947 19.5194 27.1787 20.5183 30.9468 22.5163C34.8444 24.5831 36.7934 25.6165 37.2057 27.0788C37.3758 27.6824 37.3758 28.3176 37.2057 28.9212Z" fill="#5F605F"/>
</svg>
